<svg width="58" height="58" viewBox="0 0 58 58" fill="none" xmlns="http://www.w3.org/2000/svg">
<path d="M1.13281 19.9935H56.8672V56.8671H1.13281V19.9935Z" fill="#FAF7F5"/>
<path d="M1.13281 7.92969H56.8672V19.9936H1.13281V7.92969Z" fill="#FF7D97"/>
<path d="M40.6648 38.4304C40.6648 33.1714 36.4016 28.9082 31.1426 28.9082C27.3767 28.9082 24.1217 31.0946 22.5769 34.2671C21.7007 33.8835 20.7337 33.6693 19.7161 33.6693C15.7718 33.6693 12.5745 36.8667 12.5745 40.8109C12.5745 44.7551 15.7718 47.9525 19.7161 47.9525H40.6649C43.2944 47.9525 45.426 45.8209 45.426 43.1914C45.4259 40.562 43.2943 38.4304 40.6648 38.4304Z" fill="#A0C8FF"/>
<path d="M45.1291 12.4609C43.2522 12.4609 41.7307 10.9395 41.7307 9.0625V4.53125C41.7307 2.65429 43.2522 1.13281 45.1291 1.13281C47.006 1.13281 48.5276 2.65429 48.5276 4.53125V9.0625C48.5276 10.9395 47.006 12.4609 45.1291 12.4609Z" fill="#9EA6BF"/>
<path d="M29 12.4609C27.123 12.4609 25.6016 10.9395 25.6016 9.0625V4.53125C25.6016 2.65429 27.123 1.13281 29 1.13281C30.877 1.13281 32.3984 2.65429 32.3984 4.53125V9.0625C32.3984 10.9395 30.877 12.4609 29 12.4609Z" fill="#9EA6BF"/>
<path d="M12.8706 12.4609C10.9936 12.4609 9.47217 10.9395 9.47217 9.0625V4.53125C9.47217 2.65429 10.9936 1.13281 12.8706 1.13281C14.7474 1.13281 16.269 2.65429 16.269 4.53125V9.0625C16.269 10.9395 14.7476 12.4609 12.8706 12.4609Z" fill="#9EA6BF"/>
<path d="M56.8672 33.8301C57.4928 33.8301 58 33.3229 58 32.6973C58 32.0716 57.4928 31.5645 56.8672 31.5645C56.2416 31.5645 55.7344 32.0716 55.7344 32.6973C55.7344 33.3229 56.2416 33.8301 56.8672 33.8301Z" fill="black"/>
<path d="M56.8672 6.79688H49.6606V4.53125C49.6606 2.03272 47.6279 0 45.1293 0C42.6308 0 40.5981 2.03272 40.5981 4.53125V6.79688H33.5312V4.53125C33.5312 2.03272 31.4985 0 29 0C26.5015 0 24.4688 2.03272 24.4688 4.53125V6.79688H17.4019V4.53125C17.4019 2.03272 15.3692 0 12.8707 0C10.3721 0 8.33943 2.03272 8.33943 4.53125V6.79688H1.13281C0.50716 6.79688 0 7.30415 0 7.92969V19.9936V19.9941V56.8672C0 57.4927 0.50716 58 1.13281 58H56.8672C57.4928 58 58 57.4927 58 56.8672V37.2286C58 36.6031 57.4928 36.0958 56.8672 36.0958C56.2415 36.0958 55.7344 36.6031 55.7344 37.2286V55.7344H2.26562V21.1264H55.7344V28.1661C55.7344 28.7917 56.2415 29.299 56.8672 29.299C57.4928 29.299 58 28.7917 58 28.1661V19.9941V19.9936V7.92969C58 7.30415 57.4928 6.79688 56.8672 6.79688ZM42.8637 4.53125C42.8637 3.28198 43.8801 2.26562 45.1293 2.26562C46.3786 2.26562 47.3949 3.28198 47.3949 4.53125V7.92312C47.3949 7.92538 47.3946 7.92754 47.3946 7.92969C47.3946 7.93184 47.3949 7.93411 47.3949 7.93626V9.0625C47.3949 10.3118 46.3786 11.3281 45.1293 11.3281C43.8801 11.3281 42.8637 10.3118 42.8637 9.0625V4.53125ZM26.7344 4.53125C26.7344 3.28198 27.7507 2.26562 29 2.26562C30.2493 2.26562 31.2656 3.28198 31.2656 4.53125V9.0625C31.2656 10.3118 30.2493 11.3281 29 11.3281C27.7507 11.3281 26.7344 10.3118 26.7344 9.0625V4.53125ZM12.8707 2.26562C14.1199 2.26562 15.1363 3.28198 15.1363 4.53125V9.0625C15.1363 10.3118 14.1199 11.3281 12.8707 11.3281C11.6214 11.3281 10.6051 10.3118 10.6051 9.0625V7.93626C10.6051 7.93399 10.6054 7.93184 10.6054 7.92969C10.6054 7.92754 10.6051 7.92527 10.6051 7.92312V4.53125C10.6051 3.28198 11.6214 2.26562 12.8707 2.26562ZM2.26562 18.8608V9.0625H8.33943C8.33943 11.561 10.3721 13.5938 12.8707 13.5938C15.3692 13.5938 17.4019 11.561 17.4019 9.0625H24.4688C24.4688 11.561 26.5015 13.5938 29 13.5938C31.4985 13.5938 33.5312 11.561 33.5312 9.0625H40.5981C40.5981 11.561 42.6308 13.5938 45.1293 13.5938C47.6279 13.5938 49.6606 11.561 49.6606 9.0625H55.7344V18.8608H2.26562Z" fill="black"/>
<path d="M31.1426 27.7753C29.1063 27.7753 27.1265 28.352 25.4173 29.443C24.0444 30.3193 22.8953 31.4926 22.0512 32.8717C21.2962 32.649 20.5143 32.5365 19.7161 32.5365C15.1535 32.5365 11.4417 36.2484 11.4417 40.8109C11.4417 45.3734 15.1535 49.0854 19.7161 49.0854H40.6649C43.9148 49.0854 46.5588 46.4414 46.5588 43.1915C46.5588 40.3115 44.4824 37.9074 41.7481 37.3975C41.2267 32.0051 36.6693 27.7753 31.1426 27.7753ZM44.2931 43.1914C44.2931 45.192 42.6655 46.8197 40.6648 46.8197H19.7159C16.4027 46.8197 13.7072 44.124 13.7072 40.8108C13.7072 37.4975 16.4027 34.802 19.7159 34.802C20.5506 34.802 21.3601 34.9711 22.1219 35.3044C23.6402 35.97 24.8275 37.2468 25.3792 38.8076C25.5436 39.2726 25.9806 39.5632 26.4472 39.5632C26.5725 39.5632 26.7 39.5422 26.8248 39.4982C27.4146 39.2896 27.7238 38.6423 27.5152 38.0525C26.895 36.2981 25.6915 34.8048 24.1335 33.8169C25.6743 31.4642 28.2723 30.0408 31.1425 30.0408C35.4263 30.0408 38.9681 33.269 39.4689 37.42C38.7596 37.5664 38.0818 37.842 37.4677 38.2391C36.9423 38.5788 36.7918 39.2802 37.1316 39.8055C37.3484 40.1407 37.7122 40.3232 38.0838 40.3232C38.2945 40.3232 38.5078 40.2644 38.6979 40.1415C39.2832 39.7629 39.9633 39.5629 40.6646 39.5629C42.6655 39.5632 44.2931 41.1908 44.2931 43.1914Z" fill="black"/>
</svg>
