<svg width="134" height="134" viewBox="0 0 134 134" fill="none" xmlns="http://www.w3.org/2000/svg">
<path d="M67 0C41.0239 0 19.8906 21.1333 19.8906 47.1094C19.8906 55.8859 22.3217 64.4509 26.9227 71.8816L64.3184 132.144C65.0348 133.299 66.2968 134 67.654 134C67.6645 134 67.6747 134 67.6852 134C69.0542 133.989 70.3189 133.266 71.0221 132.092L107.465 71.2451C111.812 63.9714 114.109 55.6254 114.109 47.1094C114.109 21.1333 92.9761 0 67 0ZM100.727 67.2141L67.5946 122.533L33.5961 67.7449C29.7663 61.5599 27.6898 54.4244 27.6898 47.1094C27.6898 25.4626 45.3532 7.79922 67 7.79922C88.6468 7.79922 106.284 25.4626 106.284 47.1094C106.284 54.2075 104.344 61.1605 100.727 67.2141Z" fill="#B8D9D4"/>
<path d="M67 23.5547C54.0119 23.5547 43.4453 34.1213 43.4453 47.1094C43.4453 60.0145 53.84 70.6641 67 70.6641C80.3223 70.6641 90.5547 59.8726 90.5547 47.1094C90.5547 34.1213 79.9881 23.5547 67 23.5547ZM67 62.8648C58.296 62.8648 51.2445 55.7898 51.2445 47.1094C51.2445 38.4507 58.3413 31.3539 67 31.3539C75.6587 31.3539 82.7293 38.4507 82.7293 47.1094C82.7293 55.6631 75.8419 62.8648 67 62.8648Z" fill="#B8D9D4"/>
</svg>
